<?xml version="1.0" encoding="iso-8859-1"?>
<!-- Generator: Adobe Illustrator 19.0.0, SVG Export Plug-In . SVG Version: 6.00 Build 0)  -->
<svg version="1.1" id="Layer_1" xmlns="http://www.w3.org/2000/svg" xmlns:xlink="http://www.w3.org/1999/xlink" x="0px" y="0px"
	 viewBox="0 0 512 512" style="enable-background:new 0 0 512 512;" xml:space="preserve">
<path style="fill:#CCCCCC;" d="M127.249,195.116v178.977c0,26.81-21.741,48.54-48.54,48.54c-26.81,0-48.54-21.73-48.54-48.54
	V195.116L127.249,195.116L127.249,195.116z"/>
<rect x="30.169" y="189.057" style="fill:#B3B3B3;" width="97.08" height="18.366"/>
<g>
	<path style="fill:#E6E6E6;" d="M237.816,150.734h-17.048v-30.072c0-7.859-6.393-14.252-14.252-14.252h-78.328
		c-7.859,0-14.252,6.393-14.252,14.252v30.072H96.89v-30.072c0-17.259,14.04-31.299,31.299-31.299h78.328
		c17.259,0,31.299,14.04,31.299,31.299L237.816,150.734L237.816,150.734z"/>
	<path style="fill:#E6E6E6;" d="M56.257,150.734H39.21v-30.072c0-7.859-6.393-14.252-14.252-14.252H0V89.363h24.958
		c17.259,0,31.299,14.04,31.299,31.299V150.734z"/>
	<path style="fill:#E6E6E6;" d="M472.79,150.734h-17.048v-30.072c0-17.259,14.04-31.299,31.299-31.299H512v17.048h-24.958
		c-7.859,0-14.252,6.393-14.252,14.252V150.734z"/>
	<path style="fill:#E6E6E6;" d="M415.112,150.734h-17.048v-30.072c0-7.859-6.393-14.252-14.252-14.252h-78.328
		c-7.859,0-14.252,6.393-14.252,14.252v30.072h-17.048v-30.072c0-17.259,14.04-31.299,31.299-31.299h78.328
		c17.259,0,31.299,14.04,31.299,31.299L415.112,150.734L415.112,150.734z"/>
</g>
<path style="fill:#35D8B9;" d="M304.544,195.116v178.977c0,26.81-21.741,48.54-48.54,48.54c-26.81,0-48.54-21.73-48.54-48.54
	V195.116L304.544,195.116L304.544,195.116z"/>
<path style="fill:#2BBFA3;" d="M238.146,374.098V195.112h-30.685v178.986c0,26.807,21.731,48.539,48.539,48.539l0,0
	c5.363,0,10.518-0.883,15.342-2.489C252.057,413.724,238.146,395.541,238.146,374.098z"/>
<path style="fill:#F4550F;" d="M481.839,195.116v178.977c0,26.81-21.741,48.54-48.54,48.54c-26.81,0-48.54-21.73-48.54-48.54
	V195.116L481.839,195.116L481.839,195.116z"/>
<path style="fill:#D6400B;" d="M415.441,374.098V195.112h-30.685v178.986c0,26.807,21.731,48.539,48.539,48.539l0,0
	c5.363,0,10.518-0.883,15.342-2.489C429.352,413.724,415.441,395.541,415.441,374.098z"/>
<rect x="207.458" y="186.023" style="fill:#2BBFA3;" width="97.08" height="21.4"/>
<path style="fill:#B3B3B3;" d="M60.851,374.098V195.112H30.166v178.986c0,26.807,21.731,48.539,48.539,48.539l0,0
	c5.363,0,10.518-0.883,15.342-2.489C74.762,413.724,60.851,395.541,60.851,374.098z"/>
<path style="fill:#35D8B9;" d="M312.728,142.211H199.272c-4.133,0-7.485,3.35-7.485,7.485v39.637c0,4.133,3.35,7.485,7.485,7.485
	h113.456c4.133,0,7.485-3.35,7.485-7.485v-39.637C320.213,145.561,316.862,142.211,312.728,142.211z"/>
<rect x="384.765" y="188.296" style="fill:#D6400B;" width="97.08" height="19.127"/>
<path style="fill:#2BBFA3;" d="M215.813,142.211h-16.541c-4.133,0-7.485,3.35-7.485,7.485v39.637c0,4.133,3.35,7.485,7.485,7.485
	h16.541V142.211z"/>
<path style="fill:#F4550F;" d="M490.023,142.211H376.567c-4.133,0-7.485,3.35-7.485,7.485v39.637c0,4.133,3.35,7.485,7.485,7.485
	h113.456c4.133,0,7.485-3.35,7.485-7.485v-39.637C497.508,145.561,494.157,142.211,490.023,142.211z"/>
<path style="fill:#D6400B;" d="M393.108,142.211h-16.541c-4.133,0-7.485,3.35-7.485,7.485v39.637c0,4.133,3.35,7.485,7.485,7.485
	h16.541V142.211z"/>
<path style="fill:#CCCCCC;" d="M135.433,142.211H21.977c-4.133,0-7.485,3.35-7.485,7.485v39.637c0,4.133,3.35,7.485,7.485,7.485
	h113.456c4.133,0,7.485-3.35,7.485-7.485v-39.637C142.918,145.561,139.567,142.211,135.433,142.211z"/>
<path style="fill:#B3B3B3;" d="M38.517,142.211H21.977c-4.133,0-7.485,3.35-7.485,7.485v39.637c0,4.133,3.35,7.485,7.485,7.485
	h16.541V142.211z"/>
<g>
</g>
<g>
</g>
<g>
</g>
<g>
</g>
<g>
</g>
<g>
</g>
<g>
</g>
<g>
</g>
<g>
</g>
<g>
</g>
<g>
</g>
<g>
</g>
<g>
</g>
<g>
</g>
<g>
</g>
</svg>
