<?xml version="1.0" encoding="iso-8859-1"?>
<!-- Generator: Adobe Illustrator 19.0.0, SVG Export Plug-In . SVG Version: 6.00 Build 0)  -->
<svg version="1.1" id="Layer_1" xmlns="http://www.w3.org/2000/svg" xmlns:xlink="http://www.w3.org/1999/xlink" x="0px" y="0px"
	 viewBox="0 0 512 512" style="enable-background:new 0 0 512 512;" xml:space="preserve">
<path style="fill:#027372;" d="M441.427,157.751h-33.211l33.211,276.757l33.211-22.141V190.962
	C474.638,172.696,459.693,157.751,441.427,157.751z"/>
<path style="fill:#02ACAB;" d="M408.216,157.751H70.573c-18.266,0-33.211,14.945-33.211,33.211v221.405l404.065,22.141V190.962
	C441.427,172.696,426.482,157.751,408.216,157.751z"/>
<path style="fill:#969696;" d="M474.638,434.508L441.427,512h33.211c18.266,0,33.211-14.945,33.211-33.211v-22.141L474.638,434.508z
	"/>
<path style="fill:#B9B9B9;" d="M474.638,478.789v-44.281L4.151,456.649v22.141C4.151,497.055,19.096,512,37.362,512h404.065
	C459.693,512,474.638,497.055,474.638,478.789z"/>
<path style="fill:#737373;" d="M247.697,445.578v33.211c0,4.586,3.716,8.303,8.303,8.303c4.586,0,8.303-3.716,8.303-8.303v-33.211
	H247.697z"/>
<polygon style="fill:#DCDCDC;" points="474.638,412.368 441.427,412.368 425.387,434.508 474.638,456.649 507.849,456.649 "/>
<polygon style="fill:#D5F6F5;" points="37.362,412.368 4.151,456.649 474.638,456.649 441.427,412.368 "/>
<path style="fill:#81E3E2;" d="M305.816,158.503V8.303h-33.211L256,368.086c61.139,0,110.703-49.564,110.703-110.703
	C366.703,214.163,341.932,176.734,305.816,158.503z"/>
<path style="fill:#ABECEC;" d="M333.492,257.384c0-52.996-26.069-97.286-60.887-108.147V8.303h-66.422v150.2
	c-36.116,18.232-60.886,55.661-60.886,98.881c0,61.139,49.564,110.703,110.703,110.703
	C298.798,368.086,333.492,318.524,333.492,257.384z"/>
<path style="fill:#FFF1B1;" d="M299.844,268.163L256,334.876c42.729,0,77.492-34.763,77.492-77.492
	C315.988,257.384,314.295,266.418,299.844,268.163z"/>
<path style="fill:#FFFFFF;" d="M299.844,268.163c-1.544,0.186-3.229,0.291-5.1,0.291c-19.374,0-19.374-11.07-38.748-11.07
	c-19.372,0-19.372,11.07-38.743,11.07c-19.372,0-19.372-11.07-38.744-11.07c0,42.729,34.763,77.492,77.492,77.492
	C278.325,334.876,296.835,305.805,299.844,268.163z"/>
<path style="fill:#81E3E2;" d="M316.887,16.605H195.114c-4.585,0-8.303-3.716-8.303-8.303S190.528,0,195.114,0h121.773
	c4.586,0,8.303,3.716,8.303,8.303S321.473,16.605,316.887,16.605z"/>
<g>
</g>
<g>
</g>
<g>
</g>
<g>
</g>
<g>
</g>
<g>
</g>
<g>
</g>
<g>
</g>
<g>
</g>
<g>
</g>
<g>
</g>
<g>
</g>
<g>
</g>
<g>
</g>
<g>
</g>
</svg>
